{"title":"Earthling 2011 DvDRiP XviD - VISUALiSE","uid":6798529,"size":1234303677,"categoryP":"video","categoryS":"movies","magnet":"?xt=urn:btih:bfa7d27a11da09fa1588c810f073f1af6c5980d3&amp;dn=Earthling+2011+DvDRiP+XviD+-+VISUALiSE&amp;tr=udp%3A%2F%2Ftracker.openbittorrent.com%3A80&amp;tr=udp%3A%2F%2Fopen.demonii.com%3A1337&amp;tr=udp%3A%2F%2Ftracker.coppersurfer.tk%3A6969&amp;tr=udp%3A%2F%2Fexodus.desync.com%3A6969","seeders":0,"leechers":1,"uploader":"LegendET","files":3,"time":1320564755,"description":"\n[code]\noooooo     oooo  o8o   .oooooo..o ooooo     ooo       .o.       ooooo         o8o   .oooooo..o oooooooooooo\n`888.     .8'   `&quot;'  d8P'    `Y8 `888'     `8'      .888.      `888'         `&quot;'  d8P'    `Y8 `888'     `8\n`888.   .8'   oooo  Y88bo.       888       8      .8&quot;888.      888         oooo  Y88bo.       888        \n `888. .8'    `888   `&quot;Y8888o.   888       8     .8' `888.     888         `888   `&quot;Y8888o.   888oooo8    \n  `888.8'      888       `&quot;Y88b  888       8    .88ooo8888.    888          888       `&quot;Y88b  888    &quot;    \n   `888'       888  oo     .d8P  `88.    .8'   .8'     `888.   888       o  888  oo     .d8P  888       o\n    `8'       o888o 8&quot;&quot;88888P'     `YbodP'    o88o     o8888o o888ooooood8 o888o 8&quot;&quot;88888P'  o888ooooood8[/code]\n\n\n\n\nTitle: Earthling 2011 DvDRiP XviD - VISUALiSE\nFormat: Xvid\nLanguage: English\nSubtitles: No\nImdb: http://www.imdb.com/title/tt1398999/\n\nPlot:\nAfter a mysterious atmospheric event, a small group of people \nwake up to realize that their entire lives have been a lie. \nThey are in fact aliens disguised as humans. Now they have \nto make a choice. Live amongst men, or try to find a way \nback home\n\nSources:\nVideo: Retail DVDR - Many Thanks \nAudio: Retail DVDR - Many Thanks \n\nRelease Notes:\nEarthling 2011 DvDRiP XviD - VISUALiSE\nStraight forward rip from the dvdr ran \na few filters etc etc  \n\nenjoy. \n\nInfo:\nVideo\nID                               : 0\nFormat                           : MPEG-4 Visual\nCodec ID                         : XVID\nCodec ID/Hint                    : XviD\nDuration                         : 1h 46mn\nBit rate                         : 76.7 Kbps\nWidth                            : 720 pixels\nHeight                           : 402 pixels\nDisplay aspect ratio             : 16:9\nFrame rate                       : 29.970 fps\nColor space                      : YUV\nChroma subsampling               : 4:2:0\nCompression mode                 : Lossy\nBits/(Pixel*Frame)               : 0.009\nStream size                      : 58.2 MiB (5%)\n\nAudio\nID                               : 1\nFormat                           : MPEG Audio\nCodec ID                         : 55\nCodec ID/Hint                    : MP3\nDuration                         : 1h 46mn\nBit rate                         : 128 Kbps\nChannel(s)                       : 2 channels\nSampling rate                    : 48.0 KHz\nCompression mode                 : Lossy\nStream size                      : 97.2 MiB (8%)\nAlignment                        : Aligned on interleaves\n\nScreens:\n\n[img]http://i.imgur.com/SZgB8.png[/img]\n[img]http://i.imgur.com/MmlHR.png[/img]\n[img]http://i.imgur.com/Hjmnh.png[/img]\n[img]http://i.imgur.com/YnecK.png[/img]\n\n\nGreetz\nThe Villian and\nThe Select Few .... YOU Know Who YOU Are ","torrent":{"xt":"urn:btih:bfa7d27a11da09fa1588c810f073f1af6c5980d3","amp;dn":"Earthling+2011+DvDRiP+XviD+-+VISUALiSE","amp;tr":["udp%3A%2F%2Ftracker.openbittorrent.com%3A80","udp%3A%2F%2Fopen.demonii.com%3A1337","udp%3A%2F%2Ftracker.coppersurfer.tk%3A6969","udp%3A%2F%2Fexodus.desync.com%3A6969"],"infoHash":"bfa7d27a11da09fa1588c810f073f1af6c5980d3","infoHashBuffer":{"type":"Buffer","data":[191,167,210,122,17,218,9,250,21,136,200,16,240,115,241,175,108,89,128,211]},"announce":[],"urlList":[]}}